<svg width="100" height="40" viewBox="0 0 100 40" fill="none" xmlns="http://www.w3.org/2000/svg">
<path d="M99.3049 25.8721C99.1348 25.8721 98.9799 25.9819 98.9 26.2114C97.875 29.13 96.4902 30.8662 95.35 30.8662C94.6951 30.8662 94.4299 30.1378 94.4299 28.9953C94.4299 26.1366 96.1451 20.0748 97.0098 17.3109C97.1098 16.9766 97.175 16.6773 97.175 16.4228C97.175 15.6196 96.7348 15.2255 95.6451 15.2255C94.4701 15.2255 93.2049 15.6844 91.975 17.8347C91.55 15.9389 90.2652 15.1107 88.4701 15.1107C86.3951 15.1107 84.3902 16.4428 82.7402 18.6031C81.0902 20.7633 79.15 21.4718 77.6902 21.1226C78.7402 18.5582 79.1299 16.6424 79.1299 15.2204C79.1299 12.9903 78.025 11.6433 76.2402 11.6433C73.525 11.6433 71.9598 14.2276 71.9598 16.9467C71.9598 19.0471 72.9152 21.2073 75.0152 22.2551C73.2549 26.2264 70.6848 29.8185 69.7098 29.8185C68.45 29.8185 68.0799 23.667 68.15 19.2666C68.1951 16.7421 68.4049 16.6124 68.4049 15.8491C68.4049 15.41 68.1201 15.1107 66.975 15.1107C64.3049 15.1107 63.4799 17.3658 63.3549 19.9551C63.3147 20.9391 63.1603 21.9151 62.8951 22.8638C61.7799 26.8351 59.4799 29.8485 57.9799 29.8485C57.2848 29.8485 57.0951 29.155 57.0951 28.2469C57.0951 25.3882 58.7 21.816 58.7 18.7677C58.7 16.5276 57.7152 15.1107 55.8598 15.1107C53.675 15.1107 50.7848 17.705 48.05 22.5644C48.95 18.8425 49.3201 15.2404 46.655 15.2404C46.0769 15.249 45.5092 15.3962 45 15.6695C44.829 15.7492 44.6861 15.8785 44.5898 16.0405C44.4935 16.2024 44.4482 16.3895 44.46 16.5775C44.715 20.5388 41.26 30.6866 37.985 30.6866C37.39 30.6866 37.1 30.043 37.1 29.0053C37.1 26.1416 38.81 20.0948 39.67 17.3258C39.78 16.9666 39.84 16.6573 39.84 16.3879C39.84 15.6295 39.37 15.2404 38.305 15.2404C37.135 15.2404 35.865 15.6844 34.64 17.8347C34.21 15.9389 32.925 15.1107 31.13 15.1107C28.185 15.1107 24.895 18.2189 23.45 22.27C21.515 27.6782 17.615 32.9018 12.365 32.9018C7.6 32.9018 5.085 28.9454 5.085 22.6941C5.085 13.6689 11.725 6.29498 16.65 6.29498C19.005 6.29498 20.13 7.7917 20.13 10.0867C20.13 12.8656 18.575 14.1578 18.575 15.2155C18.575 15.5397 18.845 15.8591 19.38 15.8591C21.52 15.8591 24.04 13.3496 24.04 9.92704C24.04 6.50452 21.255 4 16.33 4C8.19 4 0 12.1721 0 22.6442C0 30.976 4.12 36 11.245 36C16.105 36 20.35 32.2282 22.64 27.8279C22.9 31.4749 24.56 33.3807 27.09 33.3807C29.34 33.3807 31.16 32.0437 32.55 29.6938C33.085 32.1534 34.505 33.3558 36.35 33.3558C38.465 33.3558 40.235 32.0187 41.92 29.5341C41.895 31.4849 42.34 33.3209 44.035 33.3209C44.835 33.3209 45.79 33.1362 45.96 32.4378C47.745 25.0739 52.1549 19.0621 53.5049 19.0621C53.9049 19.0621 54.0152 19.4462 54.0152 19.9002C54.0152 21.9008 52.6 26.0019 52.6 28.6211C52.6 31.4499 53.8049 33.3209 56.2951 33.3209C59.0549 33.3209 61.8598 29.9483 63.7299 25.019C64.3152 29.6239 65.5799 33.3408 67.5598 33.3408C69.9902 33.3408 74.3049 28.237 76.9201 22.8338C77.9451 22.9635 79.4848 22.9286 80.9652 21.8859C80.3348 23.4774 79.9652 25.2186 79.9652 26.9598C79.9652 31.9738 82.3652 33.3807 84.4299 33.3807C86.675 33.3807 88.4951 32.0437 89.8902 29.6938C90.35 31.8142 91.525 33.3508 93.6848 33.3508C97.0652 33.3508 100 29.9034 100 27.0745C100 26.3262 99.6799 25.8721 99.3049 25.8721ZM29.15 30.6018C27.785 30.6018 27.25 29.2298 27.25 27.1843C27.25 23.6321 29.685 17.7 32.26 17.7C33.385 17.7 33.81 19.0221 33.81 20.6386C33.81 24.2457 31.495 30.6018 29.15 30.6018ZM75.9049 20C75.0902 19.0321 74.7951 17.715 74.7951 16.5426C74.7951 15.0957 75.325 13.8734 75.9598 13.8734C76.5951 13.8734 76.7902 14.497 76.7902 15.3651C76.7902 16.817 76.2701 18.9373 75.9049 20ZM86.4902 30.6018C85.125 30.6018 84.5902 29.0253 84.5902 27.1843C84.5902 23.7568 87.025 17.7 89.6201 17.7C90.7451 17.7 91.1451 19.0122 91.1451 20.6386C91.1451 24.2457 88.8701 30.6018 86.4902 30.6018Z" fill="white"/>
</svg>
