<svg width="104" height="40" viewBox="0 0 104 40" fill="none" xmlns="http://www.w3.org/2000/svg">
<g clip-path="url(#clip0_1884_1358)">
<path fill-rule="evenodd" clip-rule="evenodd" d="M49.3761 4.96824C48.602 5.60822 48.0812 6.5031 47.9072 7.49235C47.6055 9.56024 49.0277 11.1554 51.0976 11.1554C53.2097 11.1554 54.9779 9.73323 55.2796 7.74983C55.6236 5.63768 54.2015 4.00027 52.1316 4.00027C51.1272 3.98509 50.1504 4.32826 49.3761 4.96824ZM31.4851 22.3056C31.5351 21.3394 31.5203 20.371 31.4408 19.4069H15.646L12.9706 24.9085H24.7323C23.8371 28.0848 20.4817 30.0963 16.4587 30.0963C10.3737 30.0963 6.35052 26.027 6.35052 20.2578C6.35052 14.6214 10.4662 10.5077 15.9659 10.5077C20.1257 10.5077 22.5859 12.65 23.8411 15.1585H30.6804C29.0249 8.80796 23.7043 4.51326 15.9659 4.51326C6.75283 4.51326 0 11.2218 0 20.2578C0 29.3802 6.66432 36.0003 16.4587 35.9842C25.4504 35.9842 31.1269 29.5954 31.4851 22.3056ZM37.388 5.00604L32.5581 35.5074H38.7317L43.5595 5.00604H37.388ZM44.1375 35.5074L47.4465 14.4865H53.618L50.3089 35.5074H44.1375ZM81.1641 5.00604H74.9925L73.1117 16.7677C71.9953 15.1142 69.9837 13.9957 67.0771 13.9957C62.1568 13.9957 56.9267 17.3048 55.8505 24.1038C54.5531 32.3311 59.9199 36.0002 64.0799 36.0002C66.8537 36.0002 69.1349 34.8798 70.7441 32.8682L72.0759 35.5074H78.9272L77.3864 29.8971L81.1641 5.00604ZM67.6584 19.3626C70.028 19.3626 72.5767 21.5089 71.9953 25.2665C71.3697 29.2917 68.3283 30.6334 66.1799 30.6334C63.3637 30.6334 61.3079 28.2176 61.8429 24.7737C62.3359 21.5089 64.7055 19.3626 67.6584 19.3626ZM103.348 27.0106H87.5595C88.2313 29.6939 90.1101 31.0337 92.7029 31.0337C95.0747 31.0337 96.3239 30.4523 97.1767 29.1549H102.767C101.425 34.0289 96.9977 35.9942 92.8377 35.9942C86.1735 35.9942 81.8365 31.2973 81.8365 24.991C81.8365 18.731 86.3083 13.9897 92.6587 13.9897C99.0092 13.9897 103.394 18.737 103.394 24.997C103.394 25.8479 103.394 26.1597 103.348 27.0106ZM87.5152 22.8949H97.7621C97.3597 20.6138 95.2115 19.0045 92.6628 19.0045C89.9753 19.0045 88.1065 20.5695 87.5152 22.8949Z" fill="white"/>
</g>
<defs>
<clipPath id="clip0_1884_1358">
<rect width="103.394" height="40" fill="white"/>
</clipPath>
</defs>
</svg>
