<svg width="139" height="40" viewBox="0 0 139 40" fill="none" xmlns="http://www.w3.org/2000/svg">
<g clip-path="url(#clip0_1884_1354)">
<path fill-rule="evenodd" clip-rule="evenodd" d="M107.559 26.0669C111.122 26.0669 114.02 23.2266 114.02 19.7354C114.02 16.244 111.122 13.4036 107.559 13.4036C103.997 13.4036 101.098 16.244 101.098 19.7354C101.098 23.2266 103.997 26.0669 107.559 26.0669ZM114.02 4H117.081V29.088H114.02V26.583C112.253 28.1876 109.976 29.0666 107.559 29.0666C102.309 29.0666 98.0378 24.8805 98.0378 19.7354C98.0378 14.5898 102.309 10.404 107.559 10.404C109.976 10.404 112.253 11.2828 114.02 12.8875V4ZM44.0817 25.9564C47.6442 25.9564 50.5425 23.1161 50.5425 19.6248C50.5425 16.1336 47.6442 13.2932 44.0817 13.2932C40.5191 13.2932 37.6208 16.1336 37.6208 19.6248C37.6208 23.1161 40.5191 25.9564 44.0817 25.9564ZM37.6208 12.7773C39.3873 11.1726 41.6656 10.2936 44.0817 10.2936C49.3318 10.2936 53.6033 14.4796 53.6033 19.6248C53.6033 24.77 49.3318 28.956 44.0817 28.956C41.6656 28.956 39.3873 28.0772 37.6208 26.4724V35.36H34.56V10.272H37.6208V12.7773ZM59.4434 18.1679C60.1323 15.3324 62.6991 13.2964 65.6269 13.2964C68.5165 13.2964 70.937 15.289 71.5821 18.1679H59.4434ZM65.6269 10.272C60.4554 10.272 56.2482 14.4926 56.2482 19.68C56.2482 24.8676 60.4554 29.088 65.6269 29.088C68.5229 29.088 71.1808 28.0004 72.9203 26.1041L73.9405 24.9912L73.8138 24.8739L71.849 23.0609L71.7222 22.9437L71.6051 23.071L70.7014 24.0568C69.5488 25.3134 67.6518 26.0637 65.6269 26.0637C62.6991 26.0637 60.1324 24.0278 59.4434 21.1921H74.7622V19.68C74.7622 14.4045 70.7494 10.272 65.6269 10.272ZM135.179 19.6801C135.179 23.2 132.281 26.0637 128.718 26.0637C125.156 26.0637 122.257 23.2 122.257 19.6801C122.257 16.16 125.156 13.2963 128.718 13.2963C132.281 13.2963 135.179 16.16 135.179 19.6801ZM128.718 10.272C123.468 10.272 119.197 14.4924 119.197 19.6801C119.197 24.8676 123.468 29.088 128.718 29.088C133.969 29.088 138.24 24.8676 138.24 19.6801C138.24 14.4924 133.969 10.272 128.718 10.272ZM86.135 10.272C84.0083 10.272 81.9821 11.0819 80.3872 12.5612V10.272H77.4074V29.088H80.3872V19.4859C80.3872 16.0601 82.9658 13.2728 86.135 13.2728C89.305 13.2728 91.8842 16.0601 91.8842 19.4859V29.088H94.8634V19.4859C94.8634 14.4054 90.9478 10.272 86.135 10.272Z" fill="white"/>
<path fill-rule="evenodd" clip-rule="evenodd" d="M0 21.9199H14.3999V36L28.8 21.9199V7.84H14.3999L0 21.9199Z" fill="white"/>
</g>
<defs>
<clipPath id="clip0_1884_1354">
<rect width="138.24" height="40" fill="white"/>
</clipPath>
</defs>
</svg>
