<svg width="124" height="40" viewBox="0 0 124 40" fill="none" xmlns="http://www.w3.org/2000/svg">
<path d="M117.802 12.3005C117.565 13.7638 118.269 15.088 119.351 15.6554C118.594 19.6951 115.554 26.1563 113.843 26.1563C112.132 26.1563 113.449 20.1618 115.313 13.0326C115.708 11.5061 111.694 11.8485 110.903 13.2023C109.545 20.4411 106.548 25.9836 104.686 25.9836C103.95 25.9836 103.838 25.0788 103.838 24.2864C103.838 21.0637 105.591 14.6163 105.817 13.2586C106.045 11.9255 104.192 12.2176 102.978 12.8106C102.6 13.0129 99.7723 14.4269 98.3968 15.0801C97.5581 11.9778 94.0749 12.3824 93.3753 14.7318C92.8671 16.426 94.1341 17.5174 95.4198 17.7453C95.3527 21.5028 93.1375 26.2688 90.6035 26.2688C87.4371 26.2688 88.9073 16.1458 92.9796 13.6572C92.7527 12.3567 91.0565 12.187 89.4727 12.8678C86.4385 14.1634 84.5528 19.0458 84.8222 23.1013C83.6381 24.9426 82.454 26.101 81.7248 26.101C81.3854 26.101 80.9897 25.7626 80.9897 24.9169C80.9897 22.5418 82.1738 15.9248 82.8557 11.514C83.3086 8.3466 82.7432 4.50127 78.4449 4.50127C75.4324 4.50127 73.752 7.37959 72.5314 11.8535H70.697C69.9076 11.8535 69.4527 13.8901 70.3023 13.9463C70.5766 13.971 71.2348 13.974 72.0114 13.97C71.7884 14.9637 71.5792 16.0155 71.3769 17.1138C71.271 17.6769 71.169 18.2581 71.071 18.8574C69.5317 22.0771 65.9321 26.5016 62.7242 26.5016C61.2372 26.5016 60.7191 24.7028 60.8099 22.4767C69.5307 22.8645 72.2097 11.9117 64.4204 11.9669C59.7827 11.9975 56.9133 16.8908 56.5689 21.4229C55.1796 23.7309 52.8676 26.5539 50.7343 26.5539C46.2101 26.5539 49.264 14.1684 52.3131 14.1684C53.6136 14.1684 53.3314 16.2612 52.539 17.6752C52.8222 19.4849 55.7065 19.6546 56.3873 16.6007C56.8955 14.2818 55.4825 12.0192 52.4848 12.0192C47.5007 12.0192 44.3688 17.5766 44.3402 22.3297C43.3841 24.4147 42.1408 25.5356 41.231 25.5356C40.4959 25.5356 40.3824 24.688 41.2872 19.7138C41.5132 18.4696 41.7392 17.0556 41.9661 15.5853C42.3016 13.4579 41.4175 12.2186 39.59 12.1929C39.59 12.1929 39.3789 12.1929 39.3049 12.2008C38.029 12.2719 36.3239 12.8185 34.5202 14.0756C33.4348 11.5338 30.3482 12.038 29.694 14.2818C29.1858 16.058 30.4528 17.172 31.7385 17.4059C31.6655 21.2808 29.4523 26.2145 26.9223 26.2145C23.7558 26.2145 25.2261 15.755 29.2974 13.2073C29.0714 11.8495 27.3752 11.6798 25.7915 12.3587C20.3062 14.6775 18.609 28.9853 26.3006 28.9853C32.3997 28.9853 34.7757 20.3345 34.8932 16.5119C35.8799 15.7777 36.9762 15.2005 37.5889 15.1857H37.6116C37.8938 15.1857 38.0063 15.2992 37.9501 15.6376C37.6097 18.2387 36.7088 22.6494 36.7088 25.0245C36.7088 27.4568 37.3876 28.9833 39.4805 28.9833C41.4461 28.9833 43.385 27.2407 44.7102 25.0363C45.401 27.3196 47.0972 28.9833 50.0002 28.9833C52.8765 28.9833 55.1697 26.6792 56.7455 24.4443C57.2931 27.0295 58.9163 28.9833 61.8203 28.9833C65.8413 28.9833 68.7906 25.7714 70.4918 22.7787C70.3872 23.5681 70.2865 24.3782 70.1898 25.1942C69.6244 29.7756 69.1725 31.6416 68.4364 33.2855C68.1344 33.9637 67.7947 34.6245 67.4191 35.2649C67.1359 35.774 67.4753 36 67.9282 36C68.9456 36 70.5855 35.3784 71.6038 33.6812C72.5649 32.1024 73.527 30.5147 74.5443 21.4091C74.7693 19.4543 75.0742 16.6342 75.5133 13.9444H76.6372C77.6555 13.9444 78.6166 12.0212 77.4266 11.9087C77.2174 11.889 76.6421 11.8772 75.8853 11.8683C76.5277 8.66729 77.4029 6.08302 78.6146 6.08302C79.7454 6.08302 79.9714 7.83645 79.4632 10.6645C78.6146 15.0752 77.8233 20.6177 77.4838 23.7881C77.0891 27.52 78.3314 28.9902 80.4243 28.9902C82.0732 28.9902 83.8986 27.4805 85.2949 25.5366C86.0043 27.5584 87.5022 28.9902 89.9819 28.9902C95.5787 28.9902 98.0406 21.9261 98.4984 17.9012C99.314 17.6303 100.112 17.3086 100.887 16.9381C100.35 19.7286 99.9351 22.8023 99.9351 24.5795C99.9351 27.1805 101.236 28.934 103.215 28.934C106.131 28.934 108.13 26.1869 109.333 23.9016C109.325 26.9121 110.479 28.9912 113.224 28.9912C119.162 28.9912 123.347 16.946 123.347 13.0997C123.345 8.90805 118.312 9.07679 117.802 12.3005ZM64.5289 14.1101C66.906 14.1101 65.1535 20.2536 60.9964 20.6522C61.5233 17.4443 63.0034 14.1101 64.5289 14.1101Z" fill="white"/>
<path fill-rule="evenodd" clip-rule="evenodd" d="M40.6626 10.2648C43.9998 10.2648 44.7349 4.49632 41.229 4.49632C37.9481 4.49632 37.2702 10.2648 40.6626 10.2648Z" fill="white"/>
<path fill-rule="evenodd" clip-rule="evenodd" d="M15.0991 4.89199C16.1737 5.51364 17.7564 7.71901 17.1348 12.4702C16.1165 20.0483 12.0452 26.2687 10.6874 26.2687C9.89804 26.2687 9.95231 25.0847 10.9706 20.67C12.3274 14.9015 14.1943 6.70168 6.8421 6.70168C-0.962028 6.70168 -1.9241 15.0712 3.10926 16.0895C2.37414 12.187 4.69298 8.51136 6.89835 8.51136C9.27343 8.51136 8.2561 13.0918 7.29304 18.0127C6.16224 23.7239 4.86172 30.2275 9.38592 30.2275C15.6636 30.2275 20.3575 18.6343 21.2061 12.4662C22.2836 4.66504 17.5324 2.57315 15.0991 4.89199Z" fill="white"/>
</svg>
