<svg width="166" height="40" viewBox="0 0 166 40" fill="none" xmlns="http://www.w3.org/2000/svg">
<path d="M111.105 31.5158C113.242 31.5158 115.378 30.6918 117.022 29.2092L119.98 32.3397C117.679 34.6463 114.557 35.9645 111.269 35.7997C104.202 35.7997 99.4357 31.0215 99.4357 24.5956C99.2713 18.4993 104.038 13.5563 110.119 13.3916C110.283 13.3916 110.448 13.3916 110.612 13.3916C117.679 13.3916 121.788 18.8288 121.459 26.408H104.531C105.024 29.7034 107.982 31.8452 111.105 31.5158ZM116.2 22.7832C116.036 19.8174 113.57 17.5107 110.612 17.6755C107.489 17.5107 104.859 19.6527 104.531 22.7832H116.2Z" fill="white"/>
<path d="M0 31.3513L12.9842 18.17H0.328713V14.0509H18.901V18.3348L5.91684 31.516H19.0653V35.6352H0V31.3513Z" fill="white"/>
<path d="M34.515 31.516C36.6517 31.516 38.7882 30.6921 40.4319 29.2092L43.3903 32.3397C41.0893 34.8113 37.8021 36.1295 34.515 35.9645C27.2834 35.9645 22.6814 31.1863 22.6814 24.7605C22.517 18.6642 27.2834 13.7213 33.3646 13.5565C33.5289 13.5565 33.6933 13.5565 33.8576 13.5565C40.9249 13.5565 45.0338 18.9938 44.5407 26.573H27.9407C28.4338 29.7036 31.3922 31.8455 34.515 31.516ZM39.6102 22.7834C39.4458 19.8176 36.9804 17.5109 34.022 17.6756C31.0635 17.5109 28.4338 19.6528 27.9407 22.7834H39.6102Z" fill="white"/>
<path d="M72.6456 24.7605C72.3169 18.8289 76.919 13.7212 82.8357 13.5564C83 13.5564 83.1646 13.5564 83.3289 13.5564C86.1228 13.5564 88.7526 14.7098 90.3962 16.8517V4.00003H94.9981V35.4703H90.3962V32.5044C88.5882 34.6463 85.9584 35.9645 83.1644 35.9645C77.2477 35.9645 72.3169 31.0215 72.4812 25.09C72.6456 24.9252 72.6456 24.7605 72.6456 24.7605ZM90.7249 24.7605C90.7249 20.9709 87.6021 18.0051 83.9863 18.0051C80.2061 18.0051 77.2477 21.1356 77.2477 24.7605C77.2477 28.55 80.3705 31.5158 83.9863 31.5158C87.7665 31.5158 90.7249 28.55 90.7249 24.7605Z" fill="white"/>
<path d="M124.254 31.0213L128.362 28.7147C129.513 30.6918 131.65 31.8452 133.786 31.8452C136.416 31.8452 137.731 30.5271 137.731 29.0442C137.731 27.5613 135.265 26.9023 132.471 26.408C128.856 25.5841 125.075 24.4308 125.075 19.9821C125.075 16.522 128.362 13.3915 133.458 13.3915C136.909 13.2267 140.196 14.7096 142.168 17.5106L138.388 19.8173C137.238 18.1697 135.43 17.3459 133.622 17.3459C131.157 17.3459 130.006 18.4992 130.006 19.9821C130.006 21.465 131.978 21.9593 135.101 22.6184C138.717 23.4422 142.661 24.5955 142.661 29.0442C142.661 32.01 140.032 35.9642 133.951 35.9642C129.842 36.294 126.061 34.3166 124.254 31.0213Z" fill="white"/>
<path d="M154.166 25.9138L150.55 29.8681V35.4703H145.949V4.00003H150.55V24.5957L160.247 13.8859H165.836L157.453 23.1128L166 35.4703H160.905L154.166 25.9138Z" fill="white"/>
<path d="M59.004 13.5565C53.5802 13.5565 48.9783 17.1813 48.9783 22.9481V35.635H53.5802V23.6072C53.2515 20.8062 55.2238 18.3347 58.0179 18.0052C58.3466 18.0052 58.6753 18.0052 59.004 18.0052C62.4555 18.0052 64.0992 20.1471 64.0992 23.6072V35.635H69.0297V22.9481C69.0297 17.0166 64.4279 13.5565 59.004 13.5565Z" fill="white"/>
</svg>
